<?xml version="1.0" encoding="UTF-8" standalone="no"?>
<!-- Created with Inkscape (http://www.inkscape.org/) -->

<svg
   width="121mm"
   height="44mm"
   viewBox="0 0 121 44"
   version="1.1"
   id="svg5"
   inkscape:version="1.1.2 (0a00cf5339, 2022-02-04)"
   xmlns:inkscape="http://www.inkscape.org/namespaces/inkscape"
   xmlns:sodipodi="http://sodipodi.sourceforge.net/DTD/sodipodi-0.dtd"
   xmlns="http://www.w3.org/2000/svg"
   xmlns:svg="http://www.w3.org/2000/svg">
  <sodipodi:namedview
     id="namedview7"
     pagecolor="#ffffff"
     bordercolor="#666666"
     borderopacity="1.0"
     inkscape:pageshadow="2"
     inkscape:pageopacity="0.0"
     inkscape:pagecheckerboard="0"
     inkscape:document-units="mm"
     showgrid="false"
     inkscape:zoom="0.69664703"
     inkscape:cx="139.9561"
     inkscape:cy="-108.37626"
     inkscape:window-width="1846"
     inkscape:window-height="1016"
     inkscape:window-x="0"
     inkscape:window-y="0"
     inkscape:window-maximized="1"
     inkscape:current-layer="layer1-1" />
  <defs
     id="defs2" />
  <g
     inkscape:label="Layer 1"
     inkscape:groupmode="layer"
     id="layer1">
    <g
       inkscape:label="Layer 1"
       id="layer1-1"
       transform="translate(20.189857,17.9176)">
      <path
         style="fill:#000000;stroke-width:0.327288"
         d="m 10.116802,2.3225749 v -5.9163682 l 0.956694,-0.9566932 c 1.228906,-1.2289189 1.596096,-1.2061088 1.722703,0.1070003 0.09883,1.0249507 0.147907,0.9772644 1.347732,-1.3091505 1.224936,-2.3342618 1.266178,-2.3728438 2.536486,-2.3728438 0.710222,0 1.291314,0.1453223 1.291314,0.322955 0,0.1776328 -0.689935,1.7118549 -1.533171,3.4093851 l -1.533183,3.0864053 1.197647,2.87191 c 0.658701,1.579533 1.126174,2.943359 1.038818,3.030703 -0.08733,0.08733 -0.56229,-0.2164 -1.055443,-0.674991 -0.493141,-0.458604 -1.31421,-1.098985 -1.824595,-1.423066 -1.275615,-0.809986 -1.515432,-0.330724 -1.521678,3.040995 l -0.0049,2.7001287 h -1.309182 -1.30915 z m 5.26608,5.1799727 c -0.154897,-0.405018 -0.666481,-1.6816847 -1.136875,-2.8370387 -0.47038,-1.155355 -0.804925,-2.150952 -0.743447,-2.212442 0.252534,-0.252522 3.153217,2.253461 4.102451,3.544217 1.401529,1.9058027 1.332678,2.2416607 -0.459607,2.2416607 -1.234114,0 -1.527827,-0.122711 -1.762522,-0.736397 z m 4.233646,0.346112 c 0.0049,-0.235364 0.35936,-2.4162137 0.788362,-4.8463297 l 0.779989,-4.418391 1.381118,-1.2273355 c 1.435263,-1.2754547 1.356516,-1.7196601 -0.10156,-0.572754 -0.960257,0.7553346 -1.253684,0.8228249 -1.067096,0.2454574 0.07274,-0.2250099 0.302322,-1.4768876 0.510237,-2.7819436 l 0.378014,-2.3728438 h 1.735036 c 1.531228,0 1.754816,0.086466 1.903379,0.7363964 0.609815,2.6675459 2.270928,13.3688151 2.101496,13.5382588 -0.114174,0.114175 -0.666852,-0.1790307 -1.2283,-0.6514517 -0.76157,-0.640826 -1.384657,-0.858945 -2.453657,-0.858945 -1.534891,0 -1.515222,-0.03055 -1.896242,2.9455977 -0.08288,0.647084 -2.84331,0.9048 -2.830792,0.264284 z M 24.642024,0.62948588 C 23.995903,-3.6398591 24.02971,-3.5937439 23.682288,-0.67966482 23.361992,2.0067949 23.364145,2.0204629 24.106442,2.0204629 c 0.692569,0 0.730977,-0.0997 0.535582,-1.39097702 z M 25.689105,7.5025476 C 25.328792,5.7339149 25.28092,4.9660619 25.530979,4.9660619 c 0.422794,0 2.913981,2.4748837 2.913981,2.8949177 0,0.222462 -0.53604,0.377965 -1.302917,0.377965 -1.088532,0 -1.327607,-0.121103 -1.452938,-0.736397 z m 3.73772,-1.8949427 c 0,-2.765294 0.589936,-4.521568 2.056507,-6.12234072 0.370419,-0.404312 0.580646,-0.82794688 0.467164,-0.94141588 -0.113433,-0.1134329 -0.617249,0.47040388 -1.119519,1.29750988 -0.50227,0.8271177 -1.023676,1.50849272 -1.158682,1.51418272 -0.135005,0.0061 -0.24547,-2.12520972 -0.24547,-4.7353338 v -4.7456877 h 1.91001 1.910009 l 0.941403,5.0729718 c 0.517758,2.79013298 1.057435,5.0729717 1.199244,5.0729717 0.14181,0 0.25784,-0.236723 0.25784,-0.526057 0,-0.289333 0.391868,-2.5721727 0.870821,-5.0729718 l 0.870832,-4.5469147 h 1.747481 1.74748 V 0.05673218 8.2389446 h -1.30915 -1.309163 l -0.0012,-4.1729217 -0.0012,-4.17293272 -0.652603,1.0703597 C 37.24969,1.5521489 36.587488,2.2017339 36.137049,2.4069629 c -0.45044,0.20523 -0.818979,0.505487 -0.818979,0.667212 0,0.329016 0.530536,0.07571 1.392995,-0.665097 0.316114,-0.271533 0.662052,-0.406403 0.768756,-0.299711 0.106752,0.106752 -0.08659,1.492683 -0.429634,3.079972 L 36.426555,8.0753016 H 35.31625 34.205984 L 33.151457,3.6569109 32.09693,-0.76149182 32.07096,3.7387269 32.04523,8.2389446 h -1.309151 -1.309163 z m 12.764271,-2.626787 c 0,-3.22786772 0.141166,-5.534173 0.365594,-5.9730227 0.376468,-0.7361367 1.572383,-1.8402179 2.00725,-1.8531198 0.135006,-0.00371 0.248747,1.0605018 0.252743,2.3655702 0.0061,1.85008858 0.148279,2.55309958 0.647308,3.19106728 0.814277,1.04099402 0.814277,1.30915002 0,1.30915002 -0.608652,0 -0.654581,0.218194 -0.654581,3.109241 v 3.1092407 h -1.309151 -1.309163 z m 10.401768,4.5201097 c -2.169074,-1.7913807 -2.158905,-6.2552807 0.01831,-8.01694942 0.906571,-0.73355208 1.035069,-0.44673 1.035069,2.31028872 0,3.537438 0.192898,3.779222 3.109253,3.897281 l 2.291017,0.09277 -1.194605,1.2273347 c -1.057149,1.086108 -1.377247,1.227138 -2.781956,1.225702 -1.161044,-0.0012 -1.826289,-0.198957 -2.477048,-0.736395 z m 8.728495,-0.35816 -1.096177,-1.0961767 -0.0087,-5.98179372 -0.0087,-5.98180608 1.104242,-1.1042296 c 0.936466,-0.936493 1.33468,-1.1042421 2.621255,-1.1042421 0.878157,0 1.875596,0.2349304 2.368416,0.5578235 1.462484,0.9582642 1.743914,2.2133826 1.743914,7.77751628 V 5.2933469 H 66.572798 65.100004 V 0.26045318 c 0,-5.30210148 -0.1796,-5.96842208 -1.538898,-5.70965478 -0.466409,0.088817 -0.608516,0.4847789 -0.685036,1.9089331 -0.08832,1.6432143 -0.193281,1.8601584 -1.227335,2.5363257 -0.621922,0.40667498 -1.130774,0.89841798 -1.130774,1.09277398 0,0.194357 0.478656,-0.04997 1.063694,-0.542892 l 1.063678,-0.89626598 0.095,3.0586587 c 0.0522,1.682266 0.254363,3.250728 0.449189,3.485485 0.223465,0.269257 1.124764,0.426826 2.441536,0.426826 1.148018,0 2.087291,0.135946 2.087291,0.302112 0,0.166153 -0.453162,0.7552727 -1.007035,1.3091497 -0.857214,0.857226 -1.25163,1.00704 -2.651032,1.00704 -1.428385,0 -1.78777,-0.143764 -2.74018,-1.096177 z m 7.70741,-0.17939 V 5.6206429 h 1.985244 c 3.298884,0 3.251371,0.0788 3.251371,-5.38840572 0,-5.04798518 -0.207383,-5.73941688 -1.721392,-5.73941688 -0.716741,0 -2.854469,1.2850539 -2.858415,1.7182749 -0.0012,0.1350058 -0.149516,0.2454572 -0.329523,0.2454572 -0.187022,0 -0.327285,-0.9818661 -0.327285,-2.2910166 v -2.2910164 h 2.323377 c 1.472397,0 2.736372,0.1959773 3.450947,0.5350628 1.865219,0.8851082 2.080604,1.6924711 2.080604,7.79934998 V 5.6302549 l -1.120361,1.2225227 c -1.104043,1.204736 -1.16118,1.224207 -3.927463,1.337936 l -2.807104,0.115412 z m 9.164079,-0.03364 V 5.6205869 h 3.436525 3.436536 v 1.3091507 1.30915 H 81.629373 78.192848 Z M 86.37506,2.8500239 v -5.3888773 l 1.015773,-1.1569012 c 0.558676,-0.6362987 1.147796,-1.1569011 1.30915,-1.1569011 0.161366,0 0.293391,0.9573241 0.293391,2.1273744 0,2.11178848 0.0061,2.12737448 0.916404,2.12737448 1.32418,0 1.701909,-0.56112598 1.701909,-2.52822328 0,-1.5939195 -0.07583,-1.7715275 -0.887272,-2.0800715 -1.1381,-0.4327058 -2.083622,-0.1856034 -3.342266,0.873476 l -1.007089,0.8474045 v -2.3201107 -2.3201107 h 2.301544 c 3.03935,0 4.446025,0.6015762 5.107286,2.1842019 0.70499,1.6872756 0.498918,5.36281278 -0.353484,6.30471078 -0.534728,0.5908637 -0.567731,0.84350872 -0.246756,1.88930272 0.203771,0.663982 0.322745,1.254995 0.264384,1.313368 -0.05839,0.05839 -0.753171,-0.263752 -1.543994,-0.715813 -0.790825,-0.452073 -1.769252,-0.823716 -2.17427,-0.82588 -0.712262,-0.0037 -0.736396,0.09797 -0.736396,3.105294 v 3.1092397 h -1.30915 -1.309164 z m 5.403881,4.9797527 c -0.286327,-0.839772 -1.149119,-4.4447507 -1.149119,-4.8013277 0,-0.620428 1.850596,0.523237 2.737473,1.691741 0.444156,0.585223 0.910009,1.6163337 1.035204,2.2913757 l 0.227633,1.227322 h -1.355847 c -0.792098,0 -1.41385,-0.170098 -1.495344,-0.409111 z M 56.214283,3.6570469 56.327715,2.0204019 h 1.277558 1.27757 v 1.636448 1.636434 l -1.390978,2.11e-4 -1.390978,1.98e-4 z m 12.815711,-2.045757 c 0.0012,-3.9398465 0.439986,-5.3218433 1.944991,-6.1272889 0.664527,-0.3556365 0.672085,-0.3024334 0.672085,4.72479418 V 5.2932839 h -1.309151 -1.30915 l 0.0012,-3.681994 z m 9.162854,-0.08362 c 0,-3.9243332 0.206071,-4.7524905 1.439035,-5.7831684 1.048936,-0.8768574 1.179278,-0.743905 1.179278,1.2028925 v 1.80009 h 1.636435 1.636448 V 0.05663418 1.3657849 h -1.620107 -1.620119 l -0.09822,1.881917 -0.09822,1.881904 -1.227323,0.10156 -1.227336,0.101561 z M 46.37499,1.4476399 c -0.274787,-0.315013 -0.670985,-0.90413302 -0.880458,-1.30914972 -0.345938,-0.66887 -0.305822,-0.73641 0.437352,-0.73641 0.984366,0 1.495839,-0.83196608 1.495839,-2.43314758 0,-1.2407442 -0.908858,-2.4761821 -1.821614,-2.4761821 -0.672172,0 -1.76267,0.572853 -2.678617,1.4071083 l -0.736396,0.6707199 v -2.3480668 -2.3480668 h 2.323389 c 4.161392,0 5.368762,1.1857355 5.36692,5.2707188 -9.77e-4,2.46378728 -0.532664,3.72938298 -1.853108,4.412218 -1.112344,0.575215 -1.05235,0.579199 -1.653307,-0.109721 z m 4.6529,-3.6586031 c 0,-4.3561448 1.062679,-5.9145874 4.033017,-5.9145874 1.379078,0 1.747814,0.1514579 2.709134,1.1127774 1.000569,1.0005694 1.112777,1.2976093 1.112777,2.945598 v 1.8328206 h -1.290336 c -1.278708,0 -1.291239,-0.012368 -1.390978,-1.3576532 -0.20612,-2.780633 -2.270407,-2.5631937 -2.555301,0.2691695 -0.137962,1.3716069 -0.356255,1.7954257 -1.390978,2.70075948 l -1.227335,1.073837 z m 27.164958,-3.5896691 v -2.3249226 h 3.436525 3.436536 v 1.3091507 1.3091504 h -2.279636 c -2.083126,0 -2.37935,0.087579 -3.436524,1.0157721 l -1.156901,1.015772 z M 10.116802,-6.1433421 v -1.9822128 h 1.309151 c 1.211403,0 1.308717,0.067169 1.30325,0.9000388 -0.0037,0.6459967 -0.373747,1.2055026 -1.30915,1.9822126 l -1.303251,1.082174 z"
         id="path3271"
         sodipodi:nodetypes="ccsssssscsssscccccsscssssscsssscscsssssscssccsssccssscscccsssscccccccccssssscccccccccccssccssscccssssscscssccccsssscccssssscccsssssccccsssssscssscsscccccccccccccssssssscccsssssscsccccsssscsscccccccccsssccccscssccccccccccccsssssscccscssssssscsssscsccccccssccccscscc"
         inkscape:export-filename="/home/zepoh/Desktop/path3271.png"
         inkscape:export-xdpi="96"
         inkscape:export-ydpi="96" />
      <path
         style="fill:#000000;stroke-width:0.327288"
         d="M -12.39667,6.1817446 V 4.5057879 l 1.227332,0.10156 c 1.2213755,0.101067 1.2273325,0.108735 1.2273325,1.5743857 0,1.465644 -0.0059,1.473288 -1.2273325,1.574376 l -1.227332,0.10156 z m 7.1203806,1.062123 C -6.4299816,6.5285366 -7.160052,4.9753139 -7.160052,3.2361459 c 0,-1.461548 0.8180741,-3.55787272 1.4888849,-3.81527972 0.2764155,-0.106008 0.1596455,-0.418575 -0.3699276,-0.98999288 -0.8638033,-0.9320527 -0.7551467,-1.3822568 0.6510783,-2.6975928 l 0.8482742,-0.793459 v 0.9988499 c 0,1.1790184 0.6531342,1.8256705 1.6936635,1.6768597 1.0678347,-0.1527063 1.5518393,-1.6693882 0.902901,-2.829357 -0.740471,-1.3235738 -1.6122925,-1.250492 -3.3521691,0.2810085 l -1.535417,1.3515301 v -1.1895825 c 0,-1.4043249 0.7348032,-2.9655507 1.6183157,-3.4383926 0.3463206,-0.1853392 1.3389349,-0.3337169 2.2058109,-0.3297091 2.49141247,0.011133 3.70351301,1.3463594 3.70351301,4.0785631 0,1.5286676 -0.73236975,3.4417936 -1.31755944,3.4417936 -0.17538635,0 -0.018456,0.30044298 0.34876249,0.66764498 C 0.63209211,0.55505488 1.0221653,1.6902969 1.0221653,3.4210899 v 1.451492 H -0.46546385 -1.9530957 l 0.2001894,-1.067095 c 0.29346,-1.564282 -0.2939735,-2.86036902 -1.2964231,-2.86036902 -0.9435661,0 -1.4924128,0.82602902 -1.4924128,2.24612502 0,1.542956 0.7262604,2.008636 3.1326207,2.008636 1.15719786,0 2.10072181,0.110464 2.09671881,0.245458 -0.012889,0.434865 -1.11698044,1.6307937 -1.85311461,2.0072487 -1.0449676,0.534407 -3.0787854,0.431142 -4.1107721,-0.208718 z M -16.626536,2.6632929 c 0.01826,-1.141784 0.565358,-2.81487172 2.060142,-6.3003069 l 2.035254,-4.7456877 1.37639,-0.1006915 1.3763885,-0.1006916 v 3.6189941 c 0,1.9904517 -0.121609,3.6189946 -0.2702375,3.6189946 -0.148629,0 -0.616141,-0.3682044 -1.038916,-0.8182245 -0.422775,-0.4500189 -0.927108,-0.8149457 -1.120737,-0.8109374 -0.193635,0.00372 -0.01519,0.2665105 0.396538,0.5833673 1.045469,0.8045432 2.0286325,2.38006788 2.0311965,3.25499558 0.0016,0.56671702 0.1906839,0.73639602 0.8203782,0.73639602 0.7363989,0 0.8182213,0.130911 0.8182213,1.309151 v 1.309163 h -4.254752 -4.254753 l 0.02488,-1.55462 z m 4.206747,-3.10925172 -0.0231,-2.04554658 -0.583866,1.3105106 c -1.127166,2.5299557 -1.146113,2.7805947 -0.210186,2.7805947 0.815015,0 0.839584,-0.06148 0.817159,-2.04555872 z"
         id="path3273"
         sodipodi:nodetypes="ccsscccsscsscsssscsscsscscccssssssscscccssscccsscccccscsss"
         inkscape:export-filename="/home/zepoh/Desktop/path3271.png"
         inkscape:export-xdpi="96"
         inkscape:export-ydpi="96" />
      <path
         d="m 3.1754968,-0.22722082 c 0,-0.79484398 0.065461,-0.81822398 2.2910202,-0.81822398 2.2255634,0 2.2910216,0.02338 2.2910216,0.81822398 0,0.7948327 -0.065461,0.8182117 -2.2910216,0.8182117 -2.2255633,0 -2.2910202,-0.02338 -2.2910202,-0.8182117 z"
         style="fill:#000000;stroke-width:0.0865949"
         id="path3275"
         inkscape:export-filename="/home/zepoh/Desktop/path3271.png"
         inkscape:export-xdpi="96"
         inkscape:export-ydpi="96" />
      <text
         xml:space="preserve"
         style="font-style:normal;font-variant:normal;font-weight:normal;font-stretch:normal;font-size:5.23661px;line-height:3.35;font-family:Chandas;-inkscape-font-specification:'Chandas, Normal';font-variant-ligatures:normal;font-variant-caps:normal;font-variant-numeric:normal;font-variant-east-asian:normal;letter-spacing:0.942591px;stroke-width:0.327288"
         x="-12.925562"
         y="18.386929"
         id="text5745"
         inkscape:export-filename="/home/zepoh/Desktop/path3271.png"
         inkscape:export-xdpi="96"
         inkscape:export-ydpi="96"><tspan
           sodipodi:role="line"
           id="tspan5743"
           style="font-style:normal;font-variant:normal;font-weight:normal;font-stretch:normal;font-size:5.23661px;font-family:Chandas;-inkscape-font-specification:'Chandas, Normal';font-variant-ligatures:normal;font-variant-caps:normal;font-variant-numeric:normal;font-variant-east-asian:normal;stroke-width:0.327288"
           x="-12.925562"
           y="18.386929">A BEST TO BE FOR A CODER</tspan></text>
    </g>
  </g>
</svg>
