<?xml version="1.0" encoding="UTF-8" standalone="no"?>
<!-- Created with Inkscape (http://www.inkscape.org/) -->

<svg
   width="28mm"
   height="32mm"
   viewBox="0 0 28 32"
   version="1.1"
   id="svg5"
   inkscape:version="1.1.2 (0a00cf5339, 2022-02-04)"
   sodipodi:docname="48.svg"
   xmlns:inkscape="http://www.inkscape.org/namespaces/inkscape"
   xmlns:sodipodi="http://sodipodi.sourceforge.net/DTD/sodipodi-0.dtd"
   xmlns="http://www.w3.org/2000/svg"
   xmlns:svg="http://www.w3.org/2000/svg">
  <sodipodi:namedview
     id="namedview7"
     pagecolor="#ffffff"
     bordercolor="#666666"
     borderopacity="1.0"
     inkscape:pageshadow="2"
     inkscape:pageopacity="0.0"
     inkscape:pagecheckerboard="0"
     inkscape:document-units="mm"
     showgrid="false"
     inkscape:zoom="1.3932941"
     inkscape:cx="207.78098"
     inkscape:cy="102.27561"
     inkscape:window-width="1846"
     inkscape:window-height="1016"
     inkscape:window-x="0"
     inkscape:window-y="0"
     inkscape:window-maximized="1"
     inkscape:current-layer="layer1-1" />
  <defs
     id="defs2" />
  <g
     inkscape:label="Layer 1"
     inkscape:groupmode="layer"
     id="layer1">
    <g
       inkscape:label="Layer 1"
       id="layer1-1"
       transform="translate(20.189857,17.9176)">
      <path
         style="fill:#000000;stroke-width:0.327288"
         d="M -11.37597,3.6359286 V 1.9599719 l 1.227332,0.10156 c 1.2213756,0.101067 1.2273326,0.108735 1.2273326,1.5743857 0,1.465644 -0.0059,1.473288 -1.2273326,1.574376 l -1.227332,0.10156 z m 7.1203807,1.062123 c -1.1536922,-0.715331 -1.8837626,-2.2685537 -1.8837626,-4.00772172 0,-1.461548 0.8180741,-3.55787268 1.4888849,-3.81527968 0.2764155,-0.106008 0.1596455,-0.418575 -0.3699276,-0.9899929 -0.8638033,-0.9320527 -0.7551467,-1.3822568 0.6510783,-2.6975928 l 0.8482742,-0.793459 v 0.9988499 c 0,1.1790184 0.6531342,1.8256705 1.6936635,1.6768597 1.06783473,-0.1527063 1.55183933,-1.6693882 0.90290103,-2.829357 -0.74047103,-1.3235738 -1.61229253,-1.250492 -3.35216913,0.2810085 l -1.535417,1.3515301 v -1.1895825 c 0,-1.4043249 0.7348032,-2.9655512 1.6183157,-3.4383922 0.3463206,-0.18534 1.3389349,-0.333717 2.2058109,-0.32971 2.4914125,0.01113 3.703513,1.3463599 3.703513,4.0785636 0,1.5286676 -0.73236971,3.4417936 -1.3175594,3.4417936 -0.17538635,0 -0.018456,0.300443 0.34876249,0.667645 0.90601321,0.9060247 1.29608641,2.04126668 1.29608641,3.77205968 V 2.3267659 H 0.55523628 -0.93239557 l 0.2001894,-1.067095 c 0.29346,-1.56428202 -0.29397353,-2.860369 -1.29642313,-2.860369 -0.9435661,0 -1.4924128,0.82602898 -1.4924128,2.24612498 0,1.54295602 0.7262604,2.00863602 3.13262073,2.00863602 1.15719786,0 2.10072177,0.110464 2.09671877,0.245458 C 1.6954084,3.3343859 0.591317,4.5303146 -0.14481717,4.9067696 -1.1897848,5.4411766 -3.2236026,5.3379116 -4.2555893,4.6980516 Z M -15.605836,0.11747688 c 0.01826,-1.14178398 0.565358,-2.81487168 2.060142,-6.30030688 l 2.035254,-4.745688 1.37639,-0.100691 1.3763886,-0.100692 v 3.6189943 c 0,1.9904517 -0.121609,3.6189946 -0.2702375,3.6189946 -0.148629,0 -0.616141,-0.3682044 -1.0389161,-0.8182245 -0.422775,-0.4500189 -0.927108,-0.8149457 -1.120737,-0.8109374 -0.193635,0.00372 -0.01519,0.2665105 0.396538,0.5833673 1.0454691,0.8045432 2.0286326,2.3800679 2.0311966,3.2549956 0.0016,0.566717 0.1906839,0.73639598 0.8203782,0.73639598 0.7363989,0 0.8182213,0.130911 0.8182213,1.309151 V 1.6719989 h -4.2547521 -4.254753 l 0.02488,-1.55462002 z m 4.206747,-3.10925168 -0.0231,-2.0455466 -0.583866,1.3105106 c -1.127166,2.5299557 -1.146113,2.78059468 -0.210186,2.78059468 0.815015,0 0.839584,-0.06148 0.817159,-2.04555868 z"
         id="path3273"
         sodipodi:nodetypes="ccsscccsscsscsssscsscsscscccssssssscscccssscccsscccccscsss"
         inkscape:export-filename="/home/zepoh/Desktop/path3271.png"
         inkscape:export-xdpi="96"
         inkscape:export-ydpi="96" />
    </g>
  </g>
</svg>
