<?xml version="1.0" encoding="UTF-8" standalone="no"?>
<!-- Created with Inkscape (http://www.inkscape.org/) -->

<svg
   width="97mm"
   height="31mm"
   viewBox="0 0 97 31"
   version="1.1"
   id="svg5"
   sodipodi:docname="campcoder.svg"
   inkscape:version="1.1.2 (0a00cf5339, 2022-02-04)"
   xmlns:inkscape="http://www.inkscape.org/namespaces/inkscape"
   xmlns:sodipodi="http://sodipodi.sourceforge.net/DTD/sodipodi-0.dtd"
   xmlns="http://www.w3.org/2000/svg"
   xmlns:svg="http://www.w3.org/2000/svg">
  <sodipodi:namedview
     id="namedview7"
     pagecolor="#ffffff"
     bordercolor="#666666"
     borderopacity="1.0"
     inkscape:pageshadow="2"
     inkscape:pageopacity="0.0"
     inkscape:pagecheckerboard="0"
     inkscape:document-units="mm"
     showgrid="false"
     inkscape:zoom="1.3932941"
     inkscape:cx="213.52277"
     inkscape:cy="171.8948"
     inkscape:window-width="1846"
     inkscape:window-height="1016"
     inkscape:window-x="0"
     inkscape:window-y="0"
     inkscape:window-maximized="1"
     inkscape:current-layer="layer1-1" />
  <defs
     id="defs2" />
  <g
     inkscape:label="Layer 1"
     inkscape:groupmode="layer"
     id="layer1">
    <g
       inkscape:label="Layer 1"
       id="layer1-1"
       transform="translate(20.189857,17.9176)">
      <path
         style="fill:#000000;stroke-width:0.327288"
         d="M -15.405894,-0.69575995 V -6.6121282 l 0.956694,-0.9566932 c 1.228906,-1.2289189 1.596096,-1.2061088 1.722703,0.1070003 0.09883,1.0249507 0.147907,0.9772644 1.347732,-1.3091505 1.224936,-2.3342614 1.266178,-2.3728434 2.5364857,-2.3728434 0.710222,0 1.291314,0.145322 1.291314,0.322955 0,0.177632 -0.689935,1.7118545 -1.533171,3.4093847 l -1.5331827,3.0864053 1.1976467,2.8719101 c 0.658701,1.57953295 1.126174,2.943359 1.038818,3.030703 -0.08733,0.08733 -0.56229,-0.2164 -1.055443,-0.67499105 -0.493141,-0.458604 -1.3142097,-1.098985 -1.8245947,-1.423066 -1.275615,-0.80998595 -1.515432,-0.330724 -1.521678,3.04099505 l -0.0049,2.700129 h -1.309182 -1.30915 z m 5.26608,5.17997305 c -0.154897,-0.405018 -0.666481,-1.681685 -1.136875,-2.837039 -0.47038,-1.15535505 -0.804925,-2.15095205 -0.743447,-2.21244205 0.252534,-0.252522 3.1532167,2.25346105 4.1024507,3.54421705 1.401529,1.905803 1.332678,2.241661 -0.459607,2.241661 -1.234114,0 -1.527827,-0.122711 -1.7625217,-0.736397 z m 4.2336457,0.346112 c 0.0049,-0.235364 0.35936,-2.416214 0.788362,-4.84633005 l 0.779989,-4.41839105 1.381118,-1.2273355 c 1.435263,-1.2754547 1.356516,-1.7196601 -0.10156,-0.572754 -0.960257,0.7553346 -1.253684,0.8228249 -1.067096,0.2454574 0.07274,-0.2250099 0.302322,-1.4768876 0.510237,-2.7819436 l 0.378014,-2.3728443 h 1.735036 c 1.53122808,0 1.75481608,0.08647 1.90337908,0.736397 0.60981492,2.6675458 2.27092792,13.3688151 2.10149592,13.5382591 -0.114174,0.114175 -0.666852,-0.179031 -1.2283,-0.651452 -0.76156992,-0.640826 -1.38465692,-0.858945 -2.453657,-0.858945 -1.534891,0 -1.515222,-0.03055 -1.896242,2.945598 -0.08288,0.647084 -2.84331,0.9048 -2.830792,0.264284 z m 5.02549608,-7.219174 C -1.5267933,-6.658194 -1.4929863,-6.6120788 -1.8404083,-3.6979999 c -0.320296,2.68646 -0.318143,2.70012795 0.424154,2.70012795 0.69256908,0 0.73097708,-0.0996999 0.53558208,-1.39097695 z m 1.047081,6.873062 c -0.360313,-1.768633 -0.408185,-2.536486 -0.158126,-2.536486 0.422794,0 2.91398092,2.474884 2.91398092,2.894918 0,0.222462 -0.53604,0.377965 -1.302917,0.377965 -1.08853192,0 -1.32760692,-0.121103 -1.45293792,-0.736397 z M 3.9041287,2.5892701 c 0,-2.76529405 0.589936,-4.521568 2.056507,-6.122341 0.370419,-0.4043118 0.580646,-0.8279467 0.467164,-0.9414157 -0.113433,-0.1134329 -0.617249,0.4704039 -1.119519,1.2975097 -0.50227,0.827118 -1.023676,1.508493 -1.158682,1.514183 -0.135005,0.0061 -0.24547,-2.12521 -0.24547,-4.7353339 v -4.7456882 h 1.91001 1.910009 l 0.941403,5.0729723 c 0.517758,2.7901328 1.057435,5.07297175 1.199244,5.07297175 0.1418103,0 0.2578403,-0.23672295 0.2578403,-0.52605695 0,-0.289333 0.391868,-2.5721728 0.870821,-5.0729719 l 0.870832,-4.5469152 h 1.747481 1.74748 v 8.1822131 8.182213 h -1.30915 -1.309163 l -0.0012,-4.172922 -0.0012,-4.172933 -0.652603,1.07036 c -0.358939,0.588699 -1.021141,1.23828395 -1.47158,1.44351295 -0.45044,0.20523 -0.8189793,0.505487 -0.8189793,0.667212 0,0.329016 0.5305363,0.07571 1.3929953,-0.665097 0.316114,-0.271533 0.662052,-0.40640295 0.768756,-0.299711 0.106752,0.106752 -0.08659,1.492683 -0.429634,3.07997205 l -0.623632,2.885963 H 9.7935537 8.6832877 L 7.6287607,0.63857605 6.5742337,-3.7798269 6.5482637,0.72039205 6.5225337,5.2206101 H 5.2133827 3.9042197 Z M 16.6684,-0.03751695 c 0,-3.22786795 0.141166,-5.53417305 0.365594,-5.97302275 0.376468,-0.7361367 1.572383,-1.8402179 2.00725,-1.8531198 0.135006,-0.00371 0.248747,1.0605018 0.252743,2.3655702 0.0061,1.8500884 0.148279,2.5530994 0.647308,3.1910674 0.814277,1.040994 0.814277,1.30914995 0,1.30914995 -0.608652,0 -0.654581,0.218194 -0.654581,3.10924105 v 3.109241 H 17.977563 16.6684 Z M 27.070168,4.4825931 c -2.169074,-1.791381 -2.158905,-6.255281 0.01831,-8.01695 0.906571,-0.7335519 1.035069,-0.4467298 1.035069,2.310289 0,3.537438 0.192898,3.779222 3.109253,3.897281 l 2.291017,0.09277 -1.194605,1.227335 c -1.057149,1.086108 -1.377247,1.227138 -2.781956,1.225702 -1.161044,-0.0012 -1.826289,-0.198957 -2.477048,-0.736395 z m 8.728495,-0.35816 -1.096177,-1.096177 -0.0087,-5.981794 -0.0087,-5.9818059 1.104242,-1.1042292 c 0.936466,-0.936493 1.33468,-1.104243 2.621255,-1.104243 0.878157,0 1.875596,0.234931 2.368416,0.557824 1.462484,0.9582642 1.743914,2.2133826 1.743914,7.7775161 v 5.083488 h -1.472811 -1.472794 v -5.032894 c 0,-5.3021013 -0.1796,-5.9684219 -1.538898,-5.7096546 -0.466409,0.088817 -0.608516,0.4847789 -0.685036,1.9089331 -0.08832,1.6432143 -0.193281,1.8601584 -1.227335,2.5363257 -0.621922,0.4066748 -1.130774,0.8984178 -1.130774,1.0927738 0,0.194357 0.478656,-0.04997 1.063694,-0.542892 l 1.063678,-0.8962658 0.095,3.0586588 c 0.0522,1.68226595 0.254363,3.250728 0.449189,3.485485 0.223465,0.269257 1.124764,0.426826 2.441536,0.426826 1.148018,0 2.087291,0.135946 2.087291,0.302112 0,0.166153 -0.453162,0.755273 -1.007035,1.30915 -0.857214,0.857226 -1.25163,1.00704 -2.651032,1.00704 -1.428385,0 -1.78777,-0.143764 -2.74018,-1.096177 z m 7.70741,-0.17939 v -1.342735 h 1.985244 c 3.298884,0 3.251371,0.0788 3.251371,-5.388406 0,-5.047985 -0.207383,-5.7394167 -1.721392,-5.7394167 -0.716741,0 -2.854469,1.2850539 -2.858415,1.7182749 -0.0012,0.1350058 -0.149516,0.2454572 -0.329523,0.2454572 -0.187022,0 -0.327285,-0.9818661 -0.327285,-2.2910166 v -2.2910169 h 2.323377 c 1.472397,0 2.736372,0.195978 3.450947,0.535063 1.865219,0.8851085 2.080604,1.6924714 2.080604,7.7993501 v 5.421323 l -1.120361,1.222523 c -1.104043,1.204736 -1.16118,1.224207 -3.927463,1.337936 l -2.807104,0.115412 z m 9.164079,-0.03364 v -1.309151 h 3.436525 3.436536 v 1.309151 1.30915 h -3.436536 -3.436525 z m 8.182212,-4.07971405 V -5.5571883 l 1.015773,-1.1569012 c 0.558676,-0.6362987 1.147796,-1.1569011 1.30915,-1.1569011 0.161366,0 0.293391,0.9573241 0.293391,2.1273744 0,2.1117883 0.0061,2.1273743 0.916404,2.1273743 1.32418,0 1.701909,-0.5611258 1.701909,-2.5282231 0,-1.5939195 -0.07583,-1.7715275 -0.887272,-2.0800715 -1.1381,-0.4327058 -2.083622,-0.1856034 -3.342266,0.873476 l -1.007089,0.8474045 v -2.3201107 -2.3201103 h 2.301544 c 3.03935,0 4.446025,0.601576 5.107286,2.1842015 0.70499,1.6872756 0.498918,5.3628126 -0.353484,6.3047106 -0.534728,0.590864 -0.567731,0.843509 -0.246756,1.88930295 0.203771,0.663982 0.322745,1.254995 0.264384,1.313368 -0.05839,0.05839 -0.753171,-0.263752 -1.543994,-0.715813 -0.790825,-0.452073 -1.769252,-0.823716 -2.17427,-0.82588 -0.712262,-0.0037 -0.736396,0.09797 -0.736396,3.10529405 v 3.10924 h -1.30915 -1.309164 z m 5.403881,4.97975305 c -0.286327,-0.839772 -1.149119,-4.44475105 -1.149119,-4.80132805 0,-0.620428 1.850596,0.523237 2.737473,1.69174105 0.444156,0.585223 0.910009,1.616334 1.035204,2.291376 l 0.227633,1.227322 h -1.355847 c -0.792098,0 -1.41385,-0.170098 -1.495344,-0.409111 z m -35.564658,-4.17273005 0.113432,-1.636645 h 1.277558 1.27757 v 1.636448 1.63643405 l -1.390978,2.11e-4 -1.390978,1.98e-4 z M 43.507298,-1.4070449 c 0.0012,-3.9398466 0.439986,-5.3218434 1.944991,-6.127289 0.664527,-0.3556365 0.672085,-0.3024334 0.672085,4.724794 v 5.084489 h -1.309151 -1.30915 l 0.0012,-3.681994 z m 9.162854,-0.08362 c 0,-3.9243333 0.206071,-4.7524906 1.439035,-5.7831685 1.048936,-0.8768574 1.179278,-0.743905 1.179278,1.2028925 v 1.80009 h 1.636435 1.636448 v 1.30915 1.309151 h -1.620107 -1.620119 l -0.09822,1.88191695 -0.09822,1.88190405 -1.227323,0.10156 -1.227336,0.101561 z m -31.817858,-0.08003 c -0.274787,-0.315013 -0.670985,-0.904133 -0.880458,-1.30915 -0.345938,-0.66887 -0.305822,-0.73641 0.437352,-0.73641 0.984366,0 1.495839,-0.8319659 1.495839,-2.4331474 0,-1.2407442 -0.908858,-2.4761821 -1.821614,-2.4761821 -0.672172,0 -1.76267,0.572853 -2.678617,1.4071083 L 16.6684,-6.4477562 V -8.795823 -11.14389 h 2.323389 c 4.161392,0 5.368762,1.1857357 5.36692,5.270719 -9.77e-4,2.4637871 -0.532664,3.7293831 -1.853108,4.4122181 -1.112344,0.57521495 -1.05235,0.57919895 -1.653307,-0.109721 z m 4.6529,-3.6586032 c 0,-4.3561448 1.062679,-5.9145879 4.033017,-5.9145879 1.379078,0 1.747814,0.151458 2.709134,1.112778 1.000569,1.0005693 1.112777,1.2976092 1.112777,2.9455979 v 1.8328206 h -1.290336 c -1.278708,0 -1.291239,-0.012368 -1.390978,-1.3576532 -0.20612,-2.780633 -2.270407,-2.5631937 -2.555301,0.2691695 -0.137962,1.3716069 -0.356255,1.7954257 -1.390978,2.7007593 l -1.227335,1.073837 z M 52.670152,-8.8189672 V -11.14389 h 3.436525 3.436536 v 1.3091509 1.3091504 h -2.279636 c -2.083126,0 -2.37935,0.087579 -3.436524,1.0157721 l -1.156901,1.015772 z M -15.405894,-9.161677 v -1.982213 h 1.309151 c 1.211403,0 1.308717,0.06717 1.30325,0.900039 -0.0037,0.6459967 -0.373747,1.2055026 -1.30915,1.9822126 l -1.303251,1.082174 z"
         id="path3271"
         sodipodi:nodetypes="ccsssssscsssscccccsscssssscsssscscsssssscssccsssccssscscccsssscccccccccssssscccccccccccssccssscccssssscscssccccsssscccssssscccsssssccccsssssscssscsscccccccccccccssssssscccsssssscsccccsssscsscccccccccsssccccscssccccccccccccsssssscccscssssssscsssscsccccccssccccscscc"
         inkscape:export-filename="/home/zepoh/Desktop/path3271.png"
         inkscape:export-xdpi="96"
         inkscape:export-ydpi="96" />
    </g>
  </g>
</svg>
